<?xml version="1.0" standalone="no"?><!DOCTYPE svg PUBLIC "-//W3C//DTD SVG 1.1//EN" "http://www.w3.org/Graphics/SVG/1.1/DTD/svg11.dtd"><svg t="1739626141947" class="icon" viewBox="0 0 1024 1024" version="1.1" xmlns="http://www.w3.org/2000/svg" p-id="6495" xmlns:xlink="http://www.w3.org/1999/xlink" width="200" height="200"><path d="M423.844 284.114c-39.87 0-72.156 31.87-72.156 71.058 0 39.25 32.276 71.057 72.156 71.057 39.838 0 72.125-31.806 72.125-71.057 0-39.188-32.276-71.058-72.125-71.058zM676.237 624.65l20.372-20.063a56.18 56.18 0 0 0 0-80.369l-35.251-34.686c11.37-19.434 20.244-40.307 26.495-62.44h38.056c31.87 0 57.747-25.438 57.747-56.808V341.85c0-31.37-25.876-56.872-57.747-56.872h-37.62c-5.94-21.812-14.494-42.622-25.555-61.938l33.875-33.31c22.56-22.25 22.56-58.249 0-80.37l-20.372-20.127c-22.559-22.186-59.122-22.186-81.617 0l-33.246 32.68c-20.277-11.625-42.217-20.68-65.405-26.931V56.797C495.969 25.44 470.125 0 438.254 0h-28.84c-31.871 0-57.715 25.439-57.715 56.808v38.185c-23.188 6.25-45.118 15.316-65.437 26.932L253.08 89.244c-22.527-22.186-59.09-22.186-81.618 0l-20.404 20.127c-22.527 22.121-22.527 58.12 0 80.369l33.876 33.31c-11.03 19.317-19.594 40.126-25.535 61.938h-37.651c-31.914 0-57.726 25.492-57.726 56.872v28.436c0 31.37 25.812 56.808 57.715 56.808h38.089a265.429 265.429 0 0 0 26.441 62.44l-35.22 34.686a56.237 56.237 0 0 0 0 80.37l20.405 20.062c22.527 22.186 59.09 22.186 81.617 0l35.433-34.878a273.656 273.656 0 0 0 63.186 25.556v36.435c0 31.37 25.844 56.808 57.714 56.808h28.842c31.87 0 57.714-25.438 57.714-56.808V615.34c22.346-5.941 43.497-14.56 63.154-25.556l35.497 34.878c22.506 22.186 59.07 22.186 81.628-0.01zM423.844 513.222c-87.654 0-158.744-70.001-158.744-156.237 0-86.375 71.09-156.302 158.744-156.302s158.712 69.938 158.712 156.302c0 86.246-71.057 156.237-158.712 156.237zM931.98 818.52h-18.25c-2.88-10.623-6.997-20.682-12.372-30.057l16.372-16.191c10.997-10.752 10.997-28.19 0-38.996l-9.877-9.749c-10.933-10.751-28.628-10.751-39.624 0l-16.064 15.872a133.74 133.74 0 0 0-31.689-13.066v-18.495c0-15.253-12.564-27.562-27.998-27.562h-14.005c-15.498 0-27.999 12.309-27.999 27.562v18.495c-11.252 2.997-21.876 7.434-31.753 13.066l-16.127-15.872c-10.88-10.751-28.628-10.751-39.56 0l-9.941 9.75c-10.88 10.815-10.88 28.243 0 38.995l16.436 16.19c-5.312 9.376-9.44 19.435-12.373 30.058h-18.228c-15.434 0-27.999 12.309-27.999 27.561v13.749c0 15.253 12.565 27.561 27.999 27.561h18.495a129.004 129.004 0 0 0 12.81 30.313l-17.12 16.81c-10.879 10.752-10.879 28.19 0 38.996l9.942 9.685c10.933 10.815 28.681 10.815 39.56 0l17.248-16.874a131.488 131.488 0 0 0 30.622 12.372v17.685c0 15.188 12.5 27.561 27.999 27.561h14.004c15.434 0 27.999-12.373 27.999-27.561v-17.685a135.058 135.058 0 0 0 30.622-12.372l17.12 16.874c10.996 10.815 28.68 10.815 39.624 0l9.877-9.685c10.997-10.816 10.997-28.244 0-38.996l-17.066-16.81a128.559 128.559 0 0 0 12.81-30.313h18.495c15.498 0 27.999-12.308 27.999-27.561V846.08c0.01-15.242-12.49-27.56-27.988-27.56zM785.49 929.202c-42.558 0-76.998-33.94-76.998-75.805s34.44-75.804 76.998-75.804c42.494 0 77 33.94 77 75.804s-34.506 75.805-77 75.805z m0-111.12c-19.37 0-34.995 15.434-34.995 34.44 0 19.061 15.626 34.442 34.995 34.442 19.317 0 34.996-15.37 34.996-34.441 0-19.007-15.69-34.441-34.996-34.441z" fill="#909399" p-id="6496"></path></svg>